<svg width="393" height="71" viewBox="0 0 393 71" fill="none" xmlns="http://www.w3.org/2000/svg">
<path d="M317.692 0.295796C312.121 1.34285 307.91 3.3279 304.341 6.53451C302.57 8.1051 300.542 10.5919 301.183 10.3519C301.363 10.2865 302.467 9.89382 303.622 9.45755C306.626 8.36686 309.348 7.66883 312.403 7.25437C314.637 6.92716 315.818 6.90535 319.592 7.03623C327.756 7.34162 327.936 7.34162 328.809 6.64358C329.913 5.74922 332.172 1.62643 331.684 1.36467C331.582 1.29923 330.401 1.01565 329.091 0.688442C325.959 -0.0314097 320.465 -0.227733 317.692 0.295796Z" fill="white"/>
<path d="M382.596 6.79628C380.26 7.45069 378.796 8.56319 377.744 10.5046C375.946 13.8639 377.718 17.8776 381.723 19.4264C383.572 20.1681 386.55 20.1026 388.475 19.2955C390.195 18.5757 391.351 17.5504 392.224 15.9144C392.763 14.8892 392.84 14.5183 392.737 12.9477C392.609 11.0281 392.095 9.91564 390.709 8.585C389.014 6.92716 385.138 6.07643 382.596 6.79628ZM388.142 8.36687C390.529 9.45755 391.608 11.159 391.454 13.6022C391.351 15.6308 390.427 16.9833 388.45 17.9867C386.062 19.2083 383.854 19.2083 381.466 17.9867C379.464 16.9615 378.565 15.6308 378.462 13.4931C378.385 12.0098 378.437 11.7044 379.104 10.6355C379.874 9.39211 381.518 8.23598 383.135 7.79971C384.496 7.45069 386.704 7.69064 388.142 8.36687Z" fill="white"/>
<path d="M381.492 13.3622V16.9615H382.134C382.75 16.9615 382.776 16.9178 382.776 15.4345V13.9075H383.649C384.624 13.9075 385.471 14.5838 386.396 16.1107C386.806 16.8088 387.038 16.9615 387.654 16.9615C388.09 16.9615 388.424 16.896 388.424 16.7869C388.424 16.547 387.166 14.9764 386.447 14.322L385.831 13.7548L386.652 13.4713C387.731 13.0786 388.27 12.0316 387.885 11.0936C387.474 10.0683 386.524 9.76294 383.803 9.76294H381.492V13.3622ZM386.267 11.1808C387.14 12.1843 386.344 12.8169 384.29 12.8169H382.776V11.8789C382.776 11.3553 382.853 10.8536 382.981 10.7664C383.34 10.4392 385.908 10.7664 386.267 11.1808Z" fill="white"/>
<path d="M214.867 35.4813C214.867 52.4087 214.79 60.5888 214.61 60.5888C214.148 60.5888 210.605 57.4695 209.039 55.6589C207.37 53.7393 204.084 49.3548 204.084 49.093C204.109 48.984 204.7 48.5695 205.393 48.155C208.551 46.3009 211.504 42.4398 212.993 38.2298C213.634 36.4193 213.686 35.9612 213.686 32.3401C213.686 28.9808 213.609 28.1737 213.147 26.734C211.786 22.6548 209.912 19.7318 206.934 17.1141C204.007 14.5183 201.003 12.9477 196.895 11.857C192.838 10.7664 190.913 10.6355 177.716 10.6355H165.573V31.0313C165.573 53.434 165.65 52.3869 164.006 54.3938C161.413 57.6222 155.2 58.6692 150.476 56.706C148.859 56.0298 147.01 54.4156 146.24 52.9977C145.675 51.9724 145.675 51.8634 145.547 34.8487C145.418 18.7938 145.393 17.6595 144.93 16.6342C143.236 12.7732 139.616 11.0499 132.53 10.7009L129.629 10.57V30.5078L129.603 50.4455L121.849 34.0852C117.562 25.0761 113.685 17.0923 113.197 16.3288C112.016 14.4747 109.603 12.4024 107.703 11.6171C105.059 10.5264 100.694 10.6573 98.3319 11.8789C97.0996 12.5333 94.6862 14.6492 93.8133 15.8708C93.3512 16.5252 91.7594 19.5791 90.2703 22.633C88.1393 27.0394 80.2317 43.5523 78.9993 46.1918C78.7426 46.7153 78.7169 46.7153 78.5115 46.3009C78.3831 46.0609 76.2008 39.4732 73.6334 31.6857C71.0917 23.8764 68.627 16.7215 68.1905 15.7617C67.5487 14.322 67.1379 13.7766 65.8542 12.7078C64.7502 11.7698 63.9543 11.2899 63.1327 11.0936C58.1262 9.82837 53.6076 11.4426 51.682 15.1509C51.3226 15.8053 49.6024 21.2151 47.8309 27.1703C46.0851 33.1254 44.5446 38.208 44.4163 38.4261C44.2879 38.7315 43.2096 35.4158 40.9246 27.6502C37.2788 15.26 36.8424 14.2347 34.6601 12.5551C32.9399 11.2463 31.2197 10.7445 28.3442 10.7445C26.3417 10.7445 25.8539 10.8318 24.5701 11.3553C22.85 12.0752 21.5663 13.2095 20.5393 14.9764C20.1028 15.6963 15.995 26.3195 11.425 38.6006C6.82932 50.8599 2.38769 62.6611 1.54045 64.7989L0 68.6599L0.564831 68.9653C3.54303 70.6013 9.57645 70.5795 13.1452 68.9435C14.7883 68.1582 16.9449 66.1513 17.9205 64.4717C18.357 63.7082 20.3339 58.7783 22.3365 53.4994C27.3173 40.2585 27.8821 38.8406 28.0618 39.2114C28.1389 39.3859 29.936 45.3629 32.067 52.4741C34.2493 59.7817 36.2005 65.8678 36.5343 66.4567C37.3045 67.7001 39.1531 69.2053 40.7449 69.816C42.6191 70.5577 45.8027 70.4923 47.9079 69.6633C49.7565 68.9435 51.605 67.3947 52.3496 65.9768C52.6063 65.4751 54.5319 59.3455 56.6115 52.3433C58.6911 45.3629 60.4626 39.7131 60.5653 39.8004C60.6423 39.8876 62.4908 45.5592 64.6731 52.4087C66.8298 59.2364 68.8837 65.3442 69.2175 65.9768C71.0147 69.3143 76.1495 71.1249 80.5398 69.9905C84.3139 69.0307 85.7516 67.5256 88.4731 61.7013L90.4757 57.4477L90.6297 59.8472C90.8094 62.7048 91.5283 64.4499 93.3768 66.3695C99.2562 72.5646 110.887 71.5175 114.994 64.4281C116.124 62.5085 116.663 60.0217 116.33 58.3202C116.201 57.6004 116.098 56.9678 116.124 56.946C116.15 56.9241 116.971 58.582 117.973 60.6325C119.898 64.7116 120.643 65.8678 122.26 67.3293C124.288 69.0962 126.753 70.0778 129.86 70.3178C132.119 70.4923 134.25 70.1432 136.484 69.2053L138.332 68.42L137.151 66.0859C135.508 62.7484 135.508 62.7048 137.228 64.1445C144.853 70.4705 156.638 72.2592 166.445 68.5727C171.991 66.4785 177.203 61.7668 179.462 56.7714C181.08 53.2158 181.054 53.543 181.157 37.8372L181.259 23.5056H185.188C189.783 23.5056 191.324 23.7019 193.455 24.5962C195.38 25.4033 196.69 26.5813 197.717 28.4355C199.719 32.1002 198.512 36.8337 194.815 39.7568C192.145 41.8509 189.27 42.7016 184.956 42.7016C183.621 42.7016 182.517 42.7452 182.517 42.8107C182.517 42.8979 184.648 46.1264 189.013 52.6268C193.532 59.3673 196.613 63.0756 199.308 65.0825C201.439 66.6749 204.777 68.2891 207.19 68.9653C211.658 70.1651 212.351 70.2305 221.748 70.3396L230.528 70.4486L230.554 59.5636V48.7004L231.427 50.8817C235.406 60.7852 244.238 67.6129 256.279 70.0778C268.269 72.5428 280.824 69.9687 290.554 62.9884L292.428 61.6577L294.277 63.0974C300.233 67.7874 307.807 70.4486 316.023 70.7758C328.347 71.2339 337.795 66.7839 343.777 57.7094C344.342 56.8369 344.752 56.3134 344.65 56.5533C344.547 56.7933 344.419 57.7749 344.342 58.7347C343.905 64.4281 348.732 69.4452 355.433 70.2523C363.469 71.2339 370.709 65.4969 370.118 58.6256L369.964 56.9896L371.967 61.0469C373.097 63.2937 374.406 65.6496 374.894 66.304C376.768 68.7908 378.976 70.1869 381.954 70.754C383.597 71.0594 384.188 71.0812 386.011 70.8631C388.809 70.5359 392.943 69.3361 392.866 68.8562C392.686 68.0273 366.242 14.8455 365.574 14.0166C364.547 12.7514 363.443 12.0097 361.466 11.2026C359.926 10.5918 359.592 10.5264 357.23 10.5482C355.202 10.5482 354.354 10.6573 353.199 11.0499C351.402 11.6389 349.245 13.2749 348.321 14.7146C347.936 15.2818 343.777 23.571 339.053 33.1254C334.303 42.658 330.015 51.0999 329.476 51.8852C327.474 54.7864 324.675 56.5533 321.029 57.2077C314.585 58.3638 307.576 56.2043 303.109 51.6889C301.799 50.38 299.591 47.3697 299.591 46.9117C299.591 46.7153 301.825 46.6281 308.911 46.5844C318.077 46.519 318.231 46.519 319.566 45.9955C322.056 45.0357 323.545 43.2251 326.318 37.7935L327.551 35.394L313.43 35.3286C301.594 35.285 299.335 35.2413 299.335 34.9796C299.335 34.4124 301.62 30.8131 302.672 29.7225C304.855 27.4975 307.782 25.8178 311.325 24.7489C313.481 24.0945 313.764 24.0509 317.692 24.0509C321.543 24.0509 321.928 24.0945 323.982 24.6835C325.189 25.0325 327.063 25.6869 328.192 26.1668C329.296 26.6467 330.221 26.9957 330.246 26.9521C330.272 26.9085 331.658 24.2472 333.327 20.997C336.768 14.2347 336.768 15.1073 333.225 13.5803C328.552 11.5735 323.443 10.57 317.949 10.57C310.606 10.57 303.751 12.2933 297.666 15.6744C295.124 17.0923 290.374 21.106 288.706 23.2656C282.903 30.7041 280.901 40.8256 283.648 48.5695L284.161 49.9438L282.39 51.4271C278.744 54.4374 274.174 56.5969 269.835 57.3604C266.677 57.9276 262.184 57.8185 259.283 57.0987C253.969 55.7898 249.809 52.9322 247.473 48.9185C245.881 46.17 245.342 44.1849 245.342 40.8474C245.342 37.51 245.856 35.5685 247.473 32.7982C249.347 29.5043 251.915 27.323 255.817 25.6651C259.078 24.2908 261.542 23.8764 265.548 23.9855C268.474 24.0727 269.219 24.1818 271.273 24.7707C272.582 25.1416 274.457 25.796 275.458 26.2323L277.255 27.0176L277.743 26.0796C278 25.556 279.309 22.982 280.67 20.3426C282.005 17.7031 283.16 15.4127 283.211 15.26C283.263 15.0637 282.39 14.5401 280.978 13.9075C272.711 10.0901 262.261 9.50116 252.813 12.2933C242.364 15.3909 234.867 21.935 231.324 31.0313L230.579 32.9945L230.477 25.2507C230.4 17.6813 230.374 17.485 229.784 16.198C228.911 14.3656 226.6 12.4024 224.495 11.748C222.466 11.0936 220.156 10.7009 217.255 10.5264L214.867 10.3737V35.4813ZM105.88 35.5031C107.883 39.4732 111.297 46.5626 114.327 53.0631C114.738 53.9139 114.738 53.9139 114.301 53.3903C113.274 52.1688 111.965 51.0999 110.527 50.2928C105.007 47.2607 97.5874 48.2423 93.4539 52.5396C92.812 53.194 92.3755 53.5648 92.4526 53.3903C94.0957 49.7692 103.261 30.4859 103.338 30.5296C103.364 30.5732 104.519 32.82 105.88 35.5031ZM362.878 42.5925C365.651 48.2205 367.987 52.9977 368.064 53.1722C368.141 53.3467 367.859 53.1067 367.448 52.605C366.447 51.4707 364.778 50.3146 363.109 49.5947C357.589 47.2389 350.914 48.4604 347.063 52.5614C346.472 53.194 346.036 53.5648 346.113 53.3903C346.524 52.496 356.691 32.0565 356.896 31.7075C357.153 31.293 357.179 31.3149 357.487 31.8166C357.666 32.1002 360.08 36.9428 362.878 42.5925Z" fill="white"/>
</svg>
